<svg xmlns="http://www.w3.org/2000/svg" xmlns:xlink="http://www.w3.org/1999/xlink" width="500" zoomAndPan="magnify" viewBox="0 0 375 374.999991" height="500" preserveAspectRatio="xMidYMid meet" version="1.0"><defs><clipPath id="1b31809656"><path d="M 0.167969 257.265625 L 290.832031 257.265625 L 290.832031 375 L 0.167969 375 Z M 0.167969 257.265625 " clip-rule="nonzero"/></clipPath><clipPath id="46d040958d"><path d="M 76.710938 0 L 367.375 0 L 367.375 117.75 L 76.710938 117.75 Z M 76.710938 0 " clip-rule="nonzero"/></clipPath></defs><rect x="-37.5" width="450" fill="#ffffff" y="-37.499999" height="449.999989" fill-opacity="1"/><rect x="-37.5" width="450" fill="#5e17eb" y="-37.499999" height="449.999989" fill-opacity="1"/><g clip-path="url(#1b31809656)"><path fill="#000000" d="M 278.742188 351.574219 L 281.890625 351.574219 L 281.890625 357.035156 L 278.742188 357.035156 Z M 278.742188 342.144531 L 281.890625 342.144531 L 281.890625 347.601562 L 278.742188 347.601562 Z M 278.742188 332.710938 L 281.890625 332.710938 L 281.890625 338.171875 L 278.742188 338.171875 Z M 278.742188 323.28125 L 281.890625 323.28125 L 281.890625 328.742188 L 278.742188 328.742188 Z M 278.742188 313.851562 L 281.890625 313.851562 L 281.890625 319.308594 L 278.742188 319.308594 Z M 278.742188 304.417969 L 281.890625 304.417969 L 281.890625 309.878906 L 278.742188 309.878906 Z M 278.742188 294.988281 L 281.890625 294.988281 L 281.890625 300.449219 L 278.742188 300.449219 Z M 285.863281 351.574219 L 289.011719 351.574219 L 289.011719 357.035156 L 285.863281 357.035156 Z M 285.863281 342.144531 L 289.011719 342.144531 L 289.011719 347.601562 L 285.863281 347.601562 Z M 285.863281 332.710938 L 289.011719 332.710938 L 289.011719 338.171875 L 285.863281 338.171875 Z M 285.863281 323.28125 L 289.011719 323.28125 L 289.011719 328.742188 L 285.863281 328.742188 Z M 285.863281 313.851562 L 289.011719 313.851562 L 289.011719 319.308594 L 285.863281 319.308594 Z M 285.863281 304.417969 L 289.011719 304.417969 L 289.011719 309.878906 L 285.863281 309.878906 Z M 285.863281 294.988281 L 289.011719 294.988281 L 289.011719 300.449219 L 285.863281 300.449219 Z M 17.527344 291.347656 L 19.019531 291.347656 L 19.019531 364.3125 L 17.527344 364.3125 Z M 32.167969 357.972656 L 40.726562 357.972656 L 40.726562 359.351562 L 32.167969 359.351562 Z M 32.167969 351.960938 L 40.726562 351.960938 L 40.726562 353.339844 L 32.167969 353.339844 Z M 32.167969 345.949219 L 40.726562 345.949219 L 40.726562 347.328125 L 32.167969 347.328125 Z M 32.167969 339.9375 L 40.726562 339.9375 L 40.726562 341.316406 L 32.167969 341.316406 Z M 32.167969 333.925781 L 40.726562 333.925781 L 40.726562 335.304688 L 32.167969 335.304688 Z M 32.167969 327.914062 L 40.726562 327.914062 L 40.726562 329.292969 L 32.167969 329.292969 Z M 32.167969 321.902344 L 40.726562 321.902344 L 40.726562 323.28125 L 32.167969 323.28125 Z M 32.167969 315.890625 L 40.726562 315.890625 L 40.726562 317.269531 L 32.167969 317.269531 Z M 32.167969 309.878906 L 40.726562 309.878906 L 40.726562 311.257812 L 32.167969 311.257812 Z M 32.167969 303.867188 L 40.726562 303.867188 L 40.726562 305.246094 L 32.167969 305.246094 Z M 140.691406 305.21875 L 142.652344 305.21875 L 142.652344 364.3125 L 140.691406 364.3125 Z M 90.316406 297.082031 L 96.113281 297.082031 L 96.113281 299.894531 L 90.316406 299.894531 Z M 90.316406 289.914062 L 96.113281 289.914062 L 96.113281 292.726562 L 90.316406 292.726562 Z M 90.316406 282.742188 L 96.113281 282.742188 L 96.113281 285.558594 L 90.316406 285.558594 Z M 100.582031 297.082031 L 106.378906 297.082031 L 106.378906 299.894531 L 100.582031 299.894531 Z M 100.582031 289.914062 L 106.378906 289.914062 L 106.378906 292.726562 L 100.582031 292.726562 Z M 100.582031 282.742188 L 106.378906 282.742188 L 106.378906 285.558594 L 100.582031 285.558594 Z M 161.226562 321.183594 L 161.226562 364.3125 L 155.761719 364.3125 L 155.761719 321.183594 Z M 184.367188 356.316406 L 195.792969 356.316406 L 195.792969 359.296875 L 184.367188 359.296875 Z M 184.367188 348.636719 L 195.792969 348.636719 L 195.792969 351.617188 L 184.367188 351.617188 Z M 184.367188 340.957031 L 195.792969 340.957031 L 195.792969 343.933594 L 184.367188 343.933594 Z M 184.367188 333.277344 L 195.792969 333.277344 L 195.792969 336.253906 L 184.367188 336.253906 Z M 184.367188 325.597656 L 195.792969 325.597656 L 195.792969 328.574219 L 184.367188 328.574219 Z M 193.023438 311.359375 L 197.511719 311.359375 L 197.511719 315.84375 L 193.023438 315.84375 Z M 193.023438 304.554688 L 197.511719 304.554688 L 197.511719 309.039062 L 193.023438 309.039062 Z M 201.339844 311.359375 L 205.824219 311.359375 L 205.824219 315.84375 L 201.339844 315.84375 Z M 201.339844 304.554688 L 205.824219 304.554688 L 205.824219 309.039062 L 201.339844 309.039062 Z M 215.167969 325.597656 L 215.167969 328.574219 L 203.742188 328.574219 L 203.742188 325.597656 Z M 215.167969 356.316406 L 215.167969 359.296875 L 203.742188 359.296875 L 203.742188 356.316406 Z M 215.167969 348.636719 L 215.167969 351.617188 L 203.742188 351.617188 L 203.742188 348.636719 Z M 203.742188 336.253906 L 203.742188 333.277344 L 215.167969 333.277344 L 215.167969 336.253906 Z M 215.167969 340.957031 L 215.167969 343.933594 L 203.742188 343.933594 L 203.742188 340.957031 Z M 271.980469 291.347656 L 273.472656 291.347656 L 273.472656 364.3125 L 271.980469 364.3125 Z M 250.273438 357.972656 L 258.832031 357.972656 L 258.832031 359.351562 L 250.273438 359.351562 Z M 250.273438 351.960938 L 258.832031 351.960938 L 258.832031 353.339844 L 250.273438 353.339844 Z M 250.273438 345.949219 L 258.832031 345.949219 L 258.832031 347.328125 L 250.273438 347.328125 Z M 250.273438 339.9375 L 258.832031 339.9375 L 258.832031 341.316406 L 250.273438 341.316406 Z M 250.273438 333.925781 L 258.832031 333.925781 L 258.832031 335.304688 L 250.273438 335.304688 Z M 250.273438 327.914062 L 258.832031 327.914062 L 258.832031 329.292969 L 250.273438 329.292969 Z M 250.273438 321.902344 L 258.832031 321.902344 L 258.832031 323.28125 L 250.273438 323.28125 Z M 250.273438 315.890625 L 258.832031 315.890625 L 258.832031 317.269531 L 250.273438 317.269531 Z M 250.273438 309.878906 L 258.832031 309.878906 L 258.832031 311.257812 L 250.273438 311.257812 Z M 250.273438 303.867188 L 258.832031 303.867188 L 258.832031 305.246094 L 250.273438 305.246094 Z M 1.988281 351.574219 L 5.136719 351.574219 L 5.136719 357.035156 L 1.988281 357.035156 Z M 1.988281 342.144531 L 5.136719 342.144531 L 5.136719 347.601562 L 1.988281 347.601562 Z M 1.988281 332.710938 L 5.136719 332.710938 L 5.136719 338.171875 L 1.988281 338.171875 Z M 1.988281 323.28125 L 5.136719 323.28125 L 5.136719 328.742188 L 1.988281 328.742188 Z M 1.988281 313.851562 L 5.136719 313.851562 L 5.136719 319.308594 L 1.988281 319.308594 Z M 1.988281 304.417969 L 5.136719 304.417969 L 5.136719 309.878906 L 1.988281 309.878906 Z M 1.988281 294.988281 L 5.136719 294.988281 L 5.136719 300.449219 L 1.988281 300.449219 Z M 9.109375 351.574219 L 12.257812 351.574219 L 12.257812 357.035156 L 9.109375 357.035156 Z M 9.109375 342.144531 L 12.257812 342.144531 L 12.257812 347.601562 L 9.109375 347.601562 Z M 9.109375 332.710938 L 12.257812 332.710938 L 12.257812 338.171875 L 9.109375 338.171875 Z M 9.109375 323.28125 L 12.257812 323.28125 L 12.257812 328.742188 L 9.109375 328.742188 Z M 9.109375 313.851562 L 12.257812 313.851562 L 12.257812 319.308594 L 9.109375 319.308594 Z M 9.109375 304.417969 L 12.257812 304.417969 L 12.257812 309.878906 L 9.109375 309.878906 Z M 9.109375 294.988281 L 12.257812 294.988281 L 12.257812 300.449219 L 9.109375 300.449219 Z M 47.210938 357.363281 L 69.402344 357.363281 L 69.402344 360.507812 L 47.210938 360.507812 Z M 47.210938 349.808594 L 69.402344 349.808594 L 69.402344 352.953125 L 47.210938 352.953125 Z M 47.210938 342.253906 L 69.402344 342.253906 L 69.402344 345.398438 L 47.210938 345.398438 Z M 47.210938 334.699219 L 69.402344 334.699219 L 69.402344 337.839844 L 47.210938 337.839844 Z M 47.210938 327.140625 L 69.402344 327.140625 L 69.402344 330.285156 L 47.210938 330.285156 Z M 225.414062 359.59375 L 245.6875 359.59375 L 245.6875 362.179688 L 225.414062 362.179688 Z M 225.414062 353.375 L 245.6875 353.375 L 245.6875 355.964844 L 225.414062 355.964844 Z M 225.414062 347.160156 L 245.6875 347.160156 L 245.6875 349.746094 L 225.414062 349.746094 Z M 225.414062 340.941406 L 245.6875 340.941406 L 245.6875 343.53125 L 225.414062 343.53125 Z M 225.414062 334.726562 L 245.6875 334.726562 L 245.6875 337.3125 L 225.414062 337.3125 Z M 288.183594 290.375 L 288.183594 278.773438 L 285.492188 278.773438 L 285.492188 272.484375 L 282.261719 272.484375 L 282.261719 278.773438 L 279.570312 278.773438 L 279.570312 290.375 L 276.921875 290.375 L 276.921875 364.3125 L 275.046875 364.3125 L 275.046875 290.375 L 270.410156 290.375 L 270.410156 278.773438 L 259.4375 278.773438 L 259.4375 300.449219 L 249.667969 300.449219 L 249.667969 364.3125 L 247.804688 364.3125 L 247.804688 331.277344 L 223.296875 331.277344 L 223.296875 364.3125 L 219.058594 364.3125 L 219.058594 321.183594 L 208.675781 321.183594 L 208.675781 301.441406 L 204.910156 301.441406 L 204.910156 291.800781 L 201.199219 291.800781 L 201.199219 288.527344 C 201.199219 287.550781 200.40625 286.757812 199.425781 286.757812 C 198.445312 286.757812 197.652344 287.550781 197.652344 288.527344 L 197.652344 291.800781 L 193.9375 291.800781 L 193.9375 301.441406 L 190.171875 301.441406 L 190.171875 321.183594 L 180.929688 321.183594 L 180.929688 301.109375 L 172.652344 301.109375 L 172.652344 307.121094 L 167.1875 307.121094 L 167.1875 311.902344 L 159.402344 311.902344 L 159.402344 314.675781 L 152.28125 314.675781 L 152.28125 296.144531 L 142.652344 296.144531 L 142.652344 292.726562 L 133.902344 292.726562 L 133.902344 285.558594 L 128.4375 285.558594 L 128.4375 278.746094 L 118.5 278.746094 L 118.5 304.53125 L 108.699219 304.53125 L 108.699219 278.746094 L 104.792969 278.746094 L 104.792969 265.867188 L 100.582031 265.867188 L 100.582031 257.265625 L 96.113281 257.265625 L 96.113281 265.867188 L 91.902344 265.867188 L 91.902344 278.746094 L 88 278.746094 L 88 304.53125 L 76.4375 304.53125 L 76.4375 364.3125 L 71.71875 364.3125 L 71.71875 322.949219 L 44.894531 322.949219 L 44.894531 364.3125 L 41.332031 364.3125 L 41.332031 300.449219 L 31.5625 300.449219 L 31.5625 278.773438 L 20.589844 278.773438 L 20.589844 290.375 L 15.953125 290.375 L 15.953125 364.3125 L 14.078125 364.3125 L 14.078125 290.375 L 11.429688 290.375 L 11.429688 278.773438 L 8.738281 278.773438 L 8.738281 272.484375 L 5.507812 272.484375 L 5.507812 278.773438 L 2.816406 278.773438 L 2.816406 290.375 L 0.167969 290.375 L 0.167969 375.011719 L 290.832031 375.011719 L 290.832031 290.375 L 288.183594 290.375 " fill-opacity="1" fill-rule="nonzero"/></g><g clip-path="url(#46d040958d)"><path fill="#000000" d="M 355.285156 94.308594 L 358.433594 94.308594 L 358.433594 99.769531 L 355.285156 99.769531 Z M 355.285156 84.878906 L 358.433594 84.878906 L 358.433594 90.339844 L 355.285156 90.339844 Z M 355.285156 75.449219 L 358.433594 75.449219 L 358.433594 80.90625 L 355.285156 80.90625 Z M 355.285156 66.015625 L 358.433594 66.015625 L 358.433594 71.476562 L 355.285156 71.476562 Z M 355.285156 56.585938 L 358.433594 56.585938 L 358.433594 62.046875 L 355.285156 62.046875 Z M 355.285156 47.15625 L 358.433594 47.15625 L 358.433594 52.613281 L 355.285156 52.613281 Z M 355.285156 37.722656 L 358.433594 37.722656 L 358.433594 43.183594 L 355.285156 43.183594 Z M 362.40625 94.308594 L 365.554688 94.308594 L 365.554688 99.769531 L 362.40625 99.769531 Z M 362.40625 84.878906 L 365.554688 84.878906 L 365.554688 90.339844 L 362.40625 90.339844 Z M 362.40625 75.449219 L 365.554688 75.449219 L 365.554688 80.90625 L 362.40625 80.90625 Z M 362.40625 66.015625 L 365.554688 66.015625 L 365.554688 71.476562 L 362.40625 71.476562 Z M 362.40625 56.585938 L 365.554688 56.585938 L 365.554688 62.046875 L 362.40625 62.046875 Z M 362.40625 47.15625 L 365.554688 47.15625 L 365.554688 52.613281 L 362.40625 52.613281 Z M 362.40625 37.722656 L 365.554688 37.722656 L 365.554688 43.183594 L 362.40625 43.183594 Z M 94.070312 34.082031 L 95.558594 34.082031 L 95.558594 107.050781 L 94.070312 107.050781 Z M 108.710938 100.707031 L 117.265625 100.707031 L 117.265625 102.085938 L 108.710938 102.085938 Z M 108.710938 94.695312 L 117.265625 94.695312 L 117.265625 96.074219 L 108.710938 96.074219 Z M 108.710938 88.683594 L 117.265625 88.683594 L 117.265625 90.0625 L 108.710938 90.0625 Z M 108.710938 82.671875 L 117.265625 82.671875 L 117.265625 84.050781 L 108.710938 84.050781 Z M 108.710938 76.660156 L 117.265625 76.660156 L 117.265625 78.039062 L 108.710938 78.039062 Z M 108.710938 70.648438 L 117.265625 70.648438 L 117.265625 72.027344 L 108.710938 72.027344 Z M 108.710938 64.636719 L 117.265625 64.636719 L 117.265625 66.015625 L 108.710938 66.015625 Z M 108.710938 58.625 L 117.265625 58.625 L 117.265625 60.003906 L 108.710938 60.003906 Z M 108.710938 52.613281 L 117.265625 52.613281 L 117.265625 53.992188 L 108.710938 53.992188 Z M 108.710938 46.605469 L 117.265625 46.605469 L 117.265625 47.984375 L 108.710938 47.984375 Z M 217.234375 47.953125 L 219.195312 47.953125 L 219.195312 107.050781 L 217.234375 107.050781 Z M 166.859375 39.820312 L 172.65625 39.820312 L 172.65625 42.632812 L 166.859375 42.632812 Z M 166.859375 32.648438 L 172.65625 32.648438 L 172.65625 35.460938 L 166.859375 35.460938 Z M 166.859375 25.480469 L 172.65625 25.480469 L 172.65625 28.292969 L 166.859375 28.292969 Z M 177.125 39.820312 L 182.921875 39.820312 L 182.921875 42.632812 L 177.125 42.632812 Z M 177.125 32.648438 L 182.921875 32.648438 L 182.921875 35.460938 L 177.125 35.460938 Z M 177.125 25.480469 L 182.921875 25.480469 L 182.921875 28.292969 L 177.125 28.292969 Z M 237.765625 63.921875 L 237.765625 107.050781 L 232.300781 107.050781 L 232.300781 63.921875 Z M 260.910156 99.054688 L 272.335938 99.054688 L 272.335938 102.03125 L 260.910156 102.03125 Z M 260.910156 91.375 L 272.335938 91.375 L 272.335938 94.351562 L 260.910156 94.351562 Z M 260.910156 83.691406 L 272.335938 83.691406 L 272.335938 86.671875 L 260.910156 86.671875 Z M 260.910156 76.011719 L 272.335938 76.011719 L 272.335938 78.992188 L 260.910156 78.992188 Z M 260.910156 68.332031 L 272.335938 68.332031 L 272.335938 71.3125 L 260.910156 71.3125 Z M 269.566406 54.097656 L 274.050781 54.097656 L 274.050781 58.578125 L 269.566406 58.578125 Z M 269.566406 47.292969 L 274.050781 47.292969 L 274.050781 51.773438 L 269.566406 51.773438 Z M 277.882812 54.097656 L 282.367188 54.097656 L 282.367188 58.578125 L 277.882812 58.578125 Z M 277.882812 47.292969 L 282.367188 47.292969 L 282.367188 51.773438 L 277.882812 51.773438 Z M 291.710938 68.332031 L 291.710938 71.3125 L 280.285156 71.3125 L 280.285156 68.332031 Z M 291.710938 99.054688 L 291.710938 102.03125 L 280.285156 102.03125 L 280.285156 99.054688 Z M 291.710938 91.375 L 291.710938 94.351562 L 280.285156 94.351562 L 280.285156 91.375 Z M 280.285156 78.992188 L 280.285156 76.011719 L 291.710938 76.011719 L 291.710938 78.992188 Z M 291.710938 83.691406 L 291.710938 86.671875 L 280.285156 86.671875 L 280.285156 83.691406 Z M 348.523438 34.082031 L 350.015625 34.082031 L 350.015625 107.050781 L 348.523438 107.050781 Z M 326.816406 100.707031 L 335.371094 100.707031 L 335.371094 102.085938 L 326.816406 102.085938 Z M 326.816406 94.695312 L 335.371094 94.695312 L 335.371094 96.074219 L 326.816406 96.074219 Z M 326.816406 88.683594 L 335.371094 88.683594 L 335.371094 90.0625 L 326.816406 90.0625 Z M 326.816406 82.671875 L 335.371094 82.671875 L 335.371094 84.050781 L 326.816406 84.050781 Z M 326.816406 76.660156 L 335.371094 76.660156 L 335.371094 78.039062 L 326.816406 78.039062 Z M 326.816406 70.648438 L 335.371094 70.648438 L 335.371094 72.027344 L 326.816406 72.027344 Z M 326.816406 64.636719 L 335.371094 64.636719 L 335.371094 66.015625 L 326.816406 66.015625 Z M 326.816406 58.625 L 335.371094 58.625 L 335.371094 60.003906 L 326.816406 60.003906 Z M 326.816406 52.613281 L 335.371094 52.613281 L 335.371094 53.992188 L 326.816406 53.992188 Z M 326.816406 46.605469 L 335.371094 46.605469 L 335.371094 47.984375 L 326.816406 47.984375 Z M 78.53125 94.308594 L 81.675781 94.308594 L 81.675781 99.769531 L 78.53125 99.769531 Z M 78.53125 84.878906 L 81.675781 84.878906 L 81.675781 90.339844 L 78.53125 90.339844 Z M 78.53125 75.449219 L 81.675781 75.449219 L 81.675781 80.90625 L 78.53125 80.90625 Z M 78.53125 66.015625 L 81.675781 66.015625 L 81.675781 71.476562 L 78.53125 71.476562 Z M 78.53125 56.585938 L 81.675781 56.585938 L 81.675781 62.046875 L 78.53125 62.046875 Z M 78.53125 47.15625 L 81.675781 47.15625 L 81.675781 52.613281 L 78.53125 52.613281 Z M 78.53125 37.722656 L 81.675781 37.722656 L 81.675781 43.183594 L 78.53125 43.183594 Z M 85.652344 94.308594 L 88.796875 94.308594 L 88.796875 99.769531 L 85.652344 99.769531 Z M 85.652344 84.878906 L 88.796875 84.878906 L 88.796875 90.339844 L 85.652344 90.339844 Z M 85.652344 75.449219 L 88.796875 75.449219 L 88.796875 80.90625 L 85.652344 80.90625 Z M 85.652344 66.015625 L 88.796875 66.015625 L 88.796875 71.476562 L 85.652344 71.476562 Z M 85.652344 56.585938 L 88.796875 56.585938 L 88.796875 62.046875 L 85.652344 62.046875 Z M 85.652344 47.15625 L 88.796875 47.15625 L 88.796875 52.613281 L 85.652344 52.613281 Z M 85.652344 37.722656 L 88.796875 37.722656 L 88.796875 43.183594 L 85.652344 43.183594 Z M 123.753906 100.101562 L 145.941406 100.101562 L 145.941406 103.246094 L 123.753906 103.246094 Z M 123.753906 92.546875 L 145.941406 92.546875 L 145.941406 95.6875 L 123.753906 95.6875 Z M 123.753906 84.988281 L 145.941406 84.988281 L 145.941406 88.132812 L 123.753906 88.132812 Z M 123.753906 77.433594 L 145.941406 77.433594 L 145.941406 80.578125 L 123.753906 80.578125 Z M 123.753906 69.878906 L 145.941406 69.878906 L 145.941406 73.019531 L 123.753906 73.019531 Z M 301.957031 102.328125 L 322.226562 102.328125 L 322.226562 104.917969 L 301.957031 104.917969 Z M 301.957031 96.113281 L 322.226562 96.113281 L 322.226562 98.699219 L 301.957031 98.699219 Z M 301.957031 89.894531 L 322.226562 89.894531 L 322.226562 92.484375 L 301.957031 92.484375 Z M 301.957031 83.679688 L 322.226562 83.679688 L 322.226562 86.265625 L 301.957031 86.265625 Z M 301.957031 77.460938 L 322.226562 77.460938 L 322.226562 80.050781 L 301.957031 80.050781 Z M 364.726562 33.109375 L 364.726562 21.507812 L 362.03125 21.507812 L 362.03125 15.222656 L 358.804688 15.222656 L 358.804688 21.507812 L 356.113281 21.507812 L 356.113281 33.109375 L 353.464844 33.109375 L 353.464844 107.050781 L 351.585938 107.050781 L 351.585938 33.109375 L 346.949219 33.109375 L 346.949219 21.507812 L 335.980469 21.507812 L 335.980469 43.183594 L 326.207031 43.183594 L 326.207031 107.050781 L 324.347656 107.050781 L 324.347656 74.015625 L 299.839844 74.015625 L 299.839844 107.050781 L 295.601562 107.050781 L 295.601562 63.921875 L 285.21875 63.921875 L 285.21875 44.175781 L 281.453125 44.175781 L 281.453125 34.539062 L 277.742188 34.539062 L 277.742188 31.265625 C 277.742188 30.285156 276.945312 29.492188 275.96875 29.492188 C 274.988281 29.492188 274.191406 30.285156 274.191406 31.265625 L 274.191406 34.539062 L 270.480469 34.539062 L 270.480469 44.175781 L 266.714844 44.175781 L 266.714844 63.921875 L 257.472656 63.921875 L 257.472656 43.847656 L 249.191406 43.847656 L 249.191406 49.859375 L 243.726562 49.859375 L 243.726562 54.636719 L 235.945312 54.636719 L 235.945312 57.414062 L 228.824219 57.414062 L 228.824219 38.882812 L 219.195312 38.882812 L 219.195312 35.460938 L 210.441406 35.460938 L 210.441406 28.292969 L 204.976562 28.292969 L 204.976562 21.480469 L 195.042969 21.480469 L 195.042969 47.265625 L 185.242188 47.265625 L 185.242188 21.480469 L 181.335938 21.480469 L 181.335938 8.605469 L 177.125 8.605469 L 177.125 0 L 172.65625 0 L 172.65625 8.605469 L 168.445312 8.605469 L 168.445312 21.480469 L 164.539062 21.480469 L 164.539062 47.265625 L 152.980469 47.265625 L 152.980469 107.050781 L 148.261719 107.050781 L 148.261719 65.6875 L 121.433594 65.6875 L 121.433594 107.050781 L 117.875 107.050781 L 117.875 43.183594 L 108.105469 43.183594 L 108.105469 21.507812 L 97.132812 21.507812 L 97.132812 33.109375 L 92.496094 33.109375 L 92.496094 107.050781 L 90.621094 107.050781 L 90.621094 33.109375 L 87.96875 33.109375 L 87.96875 21.507812 L 85.277344 21.507812 L 85.277344 15.222656 L 82.050781 15.222656 L 82.050781 21.507812 L 79.359375 21.507812 L 79.359375 33.109375 L 76.710938 33.109375 L 76.710938 117.75 L 367.375 117.75 L 367.375 33.109375 L 364.726562 33.109375 " fill-opacity="1" fill-rule="nonzero"/></g></svg>